<svg width="559" height="345" viewBox="0 0 559 345" fill="none" xmlns="http://www.w3.org/2000/svg">
<path d="M63.7314 26.7722C147.65 -4.08475 232.942 23.1951 290.788 82.6134C319.719 112.332 364.55 102.064 410.193 91.7954C455.809 81.5334 502.236 71.273 534.419 100.924C578.358 141.408 558.231 245.493 497.984 290.576C416.091 351.853 111.011 353.692 60.3923 332.665C-26.1064 296.734 59.8402 230.194 19.4636 166.408C-28.1714 91.157 26.6464 40.4081 63.7314 26.7722Z" fill="#E7F3FE"/>
<path d="M536.101 314.951C494.094 312.917 351.195 316.362 307.734 317.706C264.273 319.049 213.825 315.933 187.621 311.351C161.417 306.769 9.94263 311.742 16.8164 324.06C23.6903 336.379 84.3047 329.572 153.043 334.522C221.781 339.474 376.374 333.903 411.246 334.522C446.117 335.141 478.094 333.284 523.033 330.808C567.971 328.334 560.45 316.129 536.101 314.951Z" fill="#CCE2FF"/>
<path d="M413.051 78.3916L408.779 71.8517C407.532 71.9936 406.266 72.0677 404.98 72.0677C403.096 72.0677 401.25 71.9098 399.452 71.6099L394.838 77.9177C392.58 77.3373 390.4 76.5668 388.315 75.627L388.739 67.8507C386.009 66.3242 383.52 64.4236 381.342 62.22L380.625 62.4521V14.4355L382.597 15.1883C384.886 13.104 387.472 11.3356 390.284 9.95093L390.274 2.16333C392.405 1.33638 394.623 0.681908 396.911 0.220871L401.183 6.76078C402.43 6.62053 403.696 6.54476 404.98 6.54476C406.865 6.54476 408.712 6.70274 410.511 7.00418L415.125 0.696411C417.382 1.27673 419.563 2.04568 421.648 2.98709L421.223 10.7617C423.952 12.2899 426.441 14.1905 428.62 16.3941L436.092 13.9793C437.556 15.7412 438.87 17.6321 440.015 19.6294L435.061 25.6663C436.344 28.4373 437.247 31.4131 437.706 34.5339L445.178 36.9277C445.225 37.7144 445.251 38.5075 445.251 39.3071C445.251 40.8207 445.163 42.315 444.997 43.7852L437.41 45.7857C436.785 48.8694 435.722 51.7952 434.292 54.5002L438.917 60.7902C437.667 62.723 436.253 64.5397 434.695 66.2259L427.365 63.4242C425.077 65.5101 422.491 67.2785 419.677 68.6632L419.686 76.4491C417.558 77.2777 415.339 77.9306 413.051 78.3916ZM404.98 23.6626C396.257 23.6626 389.185 30.6667 389.185 39.3071C389.185 47.9474 396.257 54.9515 404.98 54.9515C413.704 54.9515 420.775 47.9474 420.775 39.3071C420.775 30.6667 413.704 23.6626 404.98 23.6626Z" fill="#CEE3FF"/>
<path d="M426.523 57.3711C426.339 57.3711 426.156 57.3098 426.003 57.1841C425.658 56.9004 425.61 56.391 425.898 56.0493C429.834 51.3616 432.002 45.4149 432.002 39.307C432.002 36.3812 431.52 33.5087 430.566 30.7699C430.42 30.3491 430.646 29.8913 431.071 29.7463C431.495 29.6012 431.959 29.8236 432.106 30.2443C433.116 33.154 433.629 36.2023 433.629 39.307C433.629 45.7905 431.328 52.1031 427.15 57.0793C426.989 57.2712 426.756 57.3711 426.523 57.3711Z" fill="white"/>
<path d="M424.237 20.4465C424.037 20.4465 423.836 20.3724 423.679 20.2273C421.034 17.7593 417.969 15.8894 414.573 14.6691C414.15 14.5176 413.932 14.055 414.085 13.6358C414.237 13.2183 414.705 13.0023 415.128 13.1538C418.734 14.4499 421.988 16.4343 424.795 19.0538C425.122 19.3584 425.137 19.8678 424.829 20.1918C424.67 20.3611 424.453 20.4465 424.237 20.4465Z" fill="white"/>
<path d="M398.854 13.926C398.49 13.926 398.16 13.6826 398.065 13.3167C397.956 12.8847 398.22 12.4462 398.656 12.3382C400.897 11.7772 403.216 11.4935 405.548 11.4935C405.999 11.4935 406.362 11.8546 406.362 12.2995C406.362 12.7444 405.999 13.1055 405.548 13.1055C403.35 13.1055 401.166 13.3731 399.053 13.9002C398.986 13.918 398.92 13.926 398.854 13.926Z" fill="white"/>
<path d="M377.988 98.5803V63.3033L380.625 62.4522V98.0951C379.746 98.2595 378.864 98.4223 377.988 98.5803ZM380.625 14.4355L377.988 13.428V3.98977H141.2V14.0583C139.053 13.989 136.894 13.9535 134.737 13.9535C132.805 13.9535 130.877 13.981 128.938 14.0374V0.335381H380.625V14.4355Z" fill="#CEE3FF"/>
<path d="M380.625 150.071H128.938V14.0374C130.877 13.9809 132.805 13.9535 134.737 13.9535C136.894 13.9535 139.053 13.989 141.2 14.0583V141.45H377.988V98.5803C378.864 98.4223 379.746 98.2595 380.625 98.0951V150.071Z" fill="#C2DDFF"/>
<path d="M377.988 63.3032V13.4279L380.625 14.4354V62.4521L377.988 63.3032Z" fill="#B6D5FF"/>
<path d="M141.2 141.45H377.988V3.98932H141.2V141.45Z" fill="white"/>
<path d="M343.114 75.0291C354.399 64.3899 373.685 64.6317 373.278 80.8323C372.871 97.0329 374.222 98.5562 378.865 107.055C394.978 136.543 359.661 134.808 344.932 135.776C330.203 136.743 331.424 109.258 334.028 94.0249C336.632 78.7915 339.812 78.1435 343.114 75.0291Z" fill="#303C60"/>
<path d="M348.374 167.919C344.756 198.01 338.183 220.254 337.45 234.52C336.718 248.785 333.789 304.955 333.789 304.955C333.789 304.955 341.845 304.397 342.577 303.188C343.309 301.979 357.713 270.305 356.98 250.719C356.248 231.135 371.366 201.357 371.366 201.357L367.72 172.139L348.374 167.919Z" fill="#4476BD"/>
<path d="M351.849 181.018L346.192 183.363C344.654 192.905 342.947 201.484 341.449 209.094C350.453 214.859 355.102 234.067 357.096 245.811C358.112 232.67 364.371 216.791 368.254 208.011L351.849 181.018Z" fill="#3E6BAB"/>
<path d="M377.974 164.885C377.974 164.885 390.167 180.291 389.784 197.768C389.203 224.374 386.274 231.97 391.371 259.867C393.362 270.763 386.977 306.406 386.977 306.406C386.977 306.406 381.523 306.828 378.594 305.384C378.838 302.766 375.069 260.164 367.728 240.581C364.172 231.098 359.178 204.539 356.492 189.305C353.807 174.074 353.319 170.93 354.295 170.93C355.272 170.93 377.974 164.885 377.974 164.885Z" fill="#4476BD"/>
<path d="M308.504 122.099C308.504 122.099 309.046 114.128 308.178 111.667C307.309 109.203 299.823 107.055 299.823 107.055C299.823 107.055 299.497 118.447 300.257 119.843C301.017 121.24 305.465 125.217 305.465 125.217L308.504 122.099Z" fill="#F09959"/>
<path d="M350.599 116.291C333.458 134.567 327.863 142.256 326.561 142.256C322.492 135.142 308.979 120.097 308.979 120.097L303.216 123.766C303.216 123.766 316.532 158.226 324.995 158.582C333.458 158.938 350.659 146.699 350.877 145.293C351.095 143.887 350.599 116.291 350.599 116.291Z" fill="#A2DFF2"/>
<path d="M332.721 156.796C341.107 153.414 350.715 146.341 350.877 145.293C351.095 143.887 350.599 116.291 350.599 116.291C346.862 120.276 343.601 123.81 340.769 126.9C337.698 138.226 337.9 150.559 332.721 156.796Z" fill="#96CFE0"/>
<path d="M368.015 104.261C368.015 104.261 384.418 112.405 387.999 126.821C391.579 141.235 380.984 159.046 379.682 168.551C378.38 178.055 348.436 179.727 348.436 169.553C348.436 159.799 340.933 139.096 341.356 133.822C342.351 121.448 360.611 106.29 360.611 106.29L368.015 104.261Z" fill="#A2DFF2"/>
<path d="M363.248 85.5859L370.29 107.095C370.29 107.095 362.771 112.842 349.902 126.668C350.402 117.466 358.185 107.438 358.185 107.438L352.858 87.127L363.248 85.5859Z" fill="#F09959"/>
<path d="M366.532 95.6173L363.248 85.5858L352.858 87.1269L358.185 107.438C358.185 107.438 357.664 108.259 356.897 109.55C361.915 105.86 364.994 101.269 366.532 95.6173Z" fill="#E38540"/>
<path d="M359.368 90.4396C357.469 97.2842 350.114 101.053 344.886 99.6296C339.66 98.2062 338.542 92.1322 340.442 85.2877C342.341 78.4431 348.119 74.0472 353.344 75.4706C358.57 76.8924 361.267 83.5951 359.368 90.4396Z" fill="#F09959"/>
<path d="M347.127 159.909C349.408 174.222 340.94 204.842 340.94 204.842C340.94 204.842 345.99 205.978 361.126 204.527C376.261 203.077 382.934 188.114 385.213 187.696C387.491 187.279 388.661 201.621 389.784 202.754C390.909 203.887 391.08 184.643 388.142 177.077C382.934 163.666 383.953 157.978 385.899 149.853C389.361 135.405 347.127 159.909 347.127 159.909Z" fill="#A2DFF2"/>
<path d="M334.156 297.91C335.52 303.396 332.828 307.747 329.227 310.919C326.297 313.499 317.292 314.595 317.725 315.884C318.16 317.174 328.792 317.582 332.373 317.045C335.953 316.506 336.93 314.788 341.386 314.79C344.309 314.791 344.851 312.438 343.549 309.53C342.247 306.62 341.791 305.013 342.968 302.405C344.144 299.797 334.156 297.91 334.156 297.91Z" fill="#4476BD"/>
<path d="M387.291 297.91C387.073 303.606 386.406 307.848 387.817 310.489C393.264 315.003 397.792 320.13 396.063 320.483C387.817 322.171 384.671 317.275 380.005 315.884C374.279 314.176 380.547 307.051 378.304 297.91C377.056 292.828 386.949 294.047 386.949 294.047L387.291 297.91Z" fill="#4476BD"/>
<path d="M389.372 181.747C389.044 179.96 388.637 178.352 388.142 177.077C382.934 163.666 383.953 157.978 385.899 149.853C386.054 149.212 386.116 148.649 386.096 148.156C386.536 146.708 386.946 145.24 387.305 143.761L385.538 127.957L372.793 112.966C363.241 126.829 369.688 144.077 368.254 153.588C366.822 163.099 350.817 175.226 350.817 175.226L351.338 178.6C352.052 183.228 356.385 186.444 361.067 185.801C367.663 184.893 376.317 183.072 380.167 179.533C383.893 176.108 387.193 178.758 389.372 181.747Z" fill="#96CFE0"/>
<path d="M354.559 174.681C354.559 174.681 347.494 176.64 346.649 177.077C345.804 177.515 345.337 179.828 345.337 179.828C345.337 179.828 341.293 183.307 342.842 184.539C344.392 185.77 347.158 188.888 350.817 187.437C353.061 186.547 354.803 178.376 356.274 178.31C357.747 178.245 354.559 174.681 354.559 174.681Z" fill="#F09959"/>
<path d="M374.569 111.138C382.13 111.351 388.987 124.84 391.376 136.543C393.765 148.248 396.28 164.885 396.28 164.885C396.28 164.885 383.748 174.681 371.366 177.544C360.562 180.043 355.049 181.018 355.049 181.018L352.858 174.91L378.703 159.875C378.703 159.875 369.2 142.143 368.254 128.763C367.31 115.384 368.822 110.977 374.569 111.138Z" fill="#A2DFF2"/>
<path d="M304.228 116.228L285.379 119.975L282.978 108.118L301.828 104.37L304.228 116.228Z" fill="#F5DC95"/>
<path d="M303.97 121.132C304.228 116.228 301.776 109.54 300.366 109.55C298.955 109.56 300.799 113.933 300.041 116.834C299.629 118.406 303.97 121.132 303.97 121.132Z" fill="#F09959"/>
<path d="M341.827 77.6081C342.247 91.0426 358.087 90.0125 362.428 89.1839C366.768 88.3553 357.143 117.524 365.411 119.207C371.481 120.444 370.114 111.038 376.859 111.666C379.842 111.944 382.84 116.512 382.84 116.512C382.84 116.512 382.392 113.699 380.114 111.666C377.835 109.634 371.861 97.1682 370.29 88.2473C368.721 79.3281 358.087 73.5588 354.941 73.3815C351.795 73.2025 344.091 76.7489 344.091 76.7489L341.827 77.6081Z" fill="#303C60"/>
<path d="M365.271 122.248C365.056 122.248 364.84 122.225 364.618 122.178C361.972 121.62 360.689 118.866 360.58 113.511C360.486 108.92 361.253 103.028 362.063 96.7909C362.392 94.2713 362.73 91.6647 363.01 89.1403C363.033 88.9259 363.227 88.7696 363.446 88.7937C363.665 88.8163 363.822 89.0113 363.798 89.2273C363.518 91.7566 363.178 94.368 362.851 96.8908C361.28 108.96 359.798 120.358 364.783 121.411C364.937 121.443 365.092 121.459 365.246 121.459C368.109 121.459 370.687 115.933 372.189 110.549C372.248 110.341 372.466 110.219 372.678 110.277C372.889 110.335 373.013 110.551 372.954 110.759C371.962 114.312 369.294 122.248 365.271 122.248Z" fill="#303C60"/>
<path d="M364.211 125.37C363.31 125.37 362.524 125.024 361.868 124.338C356.468 118.684 361.808 90.3156 362.037 89.1114C362.078 88.897 362.286 88.7584 362.501 88.7987C362.716 88.839 362.857 89.0437 362.817 89.2565C362.761 89.5483 357.321 118.434 362.444 123.798C363.04 124.422 363.746 124.671 364.6 124.559C367.405 124.192 369.022 120.423 370.451 117.099C371.836 113.873 373.14 110.827 375.461 110.907C375.68 110.915 375.851 111.097 375.843 111.313C375.837 111.529 375.653 111.705 375.433 111.692C375.414 111.691 375.396 111.691 375.376 111.691C373.636 111.691 372.443 114.468 371.18 117.405C369.67 120.924 367.956 124.912 364.703 125.338C364.537 125.359 364.373 125.37 364.211 125.37Z" fill="#303C60"/>
<path d="M363.015 91.7646C361.899 93.1897 360.149 93.6958 359.107 92.8947C358.066 92.0951 358.128 90.2897 359.244 88.8647C360.359 87.4396 362.108 86.9335 363.15 87.7346C364.192 88.5342 364.131 90.3396 363.015 91.7646Z" fill="#F09959"/>
<path d="M239.932 141.508C243.799 149.168 240.598 157.989 232.991 161.105C225.335 164.242 216.963 162.461 213.096 154.8C209.229 147.142 212.1 137.957 219.512 134.286C226.922 130.615 236.064 133.849 239.932 141.508Z" fill="#303C60"/>
<path d="M219.084 162.025C218.231 162.025 216.548 161.727 214.41 159.846C212.654 158.305 211.394 155.94 210.862 153.188C210.188 149.715 210.627 145.723 212.164 141.321C212.235 141.116 212.46 141.008 212.668 141.079C212.875 141.15 212.984 141.372 212.912 141.577C211.422 145.847 210.994 149.703 211.64 153.04C212.141 155.623 213.311 157.831 214.935 159.259C217.648 161.643 219.466 161.21 219.486 161.205C219.696 161.15 219.914 161.273 219.971 161.481C220.028 161.688 219.907 161.903 219.697 161.961C219.671 161.969 219.457 162.025 219.084 162.025Z" fill="#303C60"/>
<path d="M230.911 171.315C235.313 172.292 240.87 184.406 243.591 192.168C246.335 199.996 250.988 209.707 254.035 212.723C257.08 215.74 277.098 222.735 277.098 222.735C277.098 222.735 227.64 222.83 228.652 222.733C229.666 222.636 230.911 171.315 230.911 171.315Z" fill="#A8CEFF"/>
<path d="M257.167 218.844C254.461 218.46 244.693 219.706 248.851 217.981C253.009 216.258 252.43 214.054 252.43 214.054C252.43 214.054 246.53 218.939 245.467 214.667C244.549 210.985 244.198 197.981 240.717 184.946C237.841 178.484 234.077 172.018 230.911 171.315C230.911 171.315 230.8 175.905 230.616 182.34C231.831 196.579 233.893 217.499 234.415 222.774C240.971 222.783 251.942 222.774 261.121 222.761L267.225 222.472C267.225 222.472 259.876 219.227 257.167 218.844Z" fill="#93BBF0"/>
<path d="M214.729 168.631C214.729 168.631 200.727 176.379 197.464 178.028C194.201 179.675 206.608 228.043 209.368 230.116C212.126 232.189 236.42 230.473 239.185 227.861C241.952 225.25 237.063 217.235 239.457 201.187C241.849 185.138 232.156 171.285 230.911 171.315C229.666 171.346 221.538 168.631 221.538 168.631H214.729Z" fill="#A8CEFF"/>
<path d="M209.368 230.116C212.126 232.189 229.51 232.235 236.91 229.955C237.745 229.697 241.537 228.201 241.625 226.794C240.733 226.628 237.187 227.05 235.748 226.721C230.743 225.583 227.986 219.443 227.986 219.443C227.986 219.443 225.231 218.46 219.066 215.874C212.901 213.289 215.44 205.458 215.295 202.01C215.149 198.561 209.202 187.282 198.032 178.734L197.009 179.188C196.211 187.049 206.814 228.198 209.368 230.116Z" fill="#93BBF0"/>
<path d="M305.558 192.168H271.846L256.49 224.531H293.627L307.526 195.236C308.203 193.808 307.151 192.168 305.558 192.168Z" fill="#75A1DE"/>
<path d="M258.5 224.99H238.214C236.956 224.99 235.935 223.979 235.935 222.733C235.935 221.487 236.956 220.476 238.214 220.476H257.047L269.779 193.335C270.309 192.204 271.665 191.713 272.806 192.239C273.947 192.764 274.442 194.106 273.911 195.236L260.566 223.684C260.193 224.481 259.387 224.99 258.5 224.99Z" fill="#3E6BAB"/>
<path d="M223.32 218.078C232.122 219.706 234.285 221.706 239.083 222.472C244.52 223.341 243.874 224.531 239.835 224.531C235.797 224.531 225.646 224.687 222.163 223.92C218.679 223.154 223.32 218.078 223.32 218.078Z" fill="#F09959"/>
<path d="M196.364 178.935C189.62 200.294 180.058 224.531 181.582 224.531C183.105 224.531 221.833 226.081 223.356 224.79C224.88 223.499 224.443 218.542 224.227 217.896C224.009 217.249 202.208 213.418 202.208 213.418C202.208 213.418 205.079 207.875 206.168 197.046C207.255 186.217 197.643 174.884 196.364 178.935Z" fill="#A8CEFF"/>
<path d="M219.857 150.071L214.424 169.735C214.424 169.735 223.603 183.929 226.128 182.669C228.652 181.406 224.717 171.131 224.717 169.735C224.717 168.339 228.652 153.931 228.652 153.931L219.857 150.071Z" fill="#F09959"/>
<path d="M224.905 170.738C224.788 170.272 224.717 169.923 224.717 169.736C224.717 168.34 228.652 153.932 228.652 153.932L219.857 150.071L218.059 156.578C219.629 163.301 222.463 167.777 224.905 170.738Z" fill="#E38540"/>
<path d="M240.186 149.745C241.221 155.447 240.539 163.022 235.427 164.946C230.314 166.873 224.157 163.188 221.672 156.719C219.188 150.248 221.319 143.442 226.432 141.516C231.544 139.591 238.949 142.933 240.186 149.745Z" fill="#F09959"/>
<path d="M222.884 152.955C223.6 154.947 222.979 156.988 221.494 157.512C220.01 158.034 218.225 156.843 217.508 154.849C216.792 152.856 217.414 150.815 218.898 150.292C220.383 149.769 222.168 150.961 222.884 152.955Z" fill="#F09959"/>
<path d="M240.246 142.581C238.505 155.963 222.092 154.238 222.092 154.238C222.092 154.238 218.706 149.831 217.183 152.142C215.66 154.454 219.296 138.576 228.714 138.076C231.809 137.912 240.246 142.581 240.246 142.581Z" fill="#303C60"/>
<path d="M223.563 136.923C223.563 141.487 219.582 145.185 214.672 145.185C209.763 145.185 205.782 141.487 205.782 136.923C205.782 132.361 209.763 128.662 214.672 128.662C219.582 128.662 223.563 132.361 223.563 136.923Z" fill="#303C60"/>
<path d="M196.965 321.762H198.997L212.125 261.52H207.652L196.965 321.762Z" fill="#2E5B9A"/>
<path d="M260.168 321.762H258.136L242.858 259.39H247.331L260.168 321.762Z" fill="#2E5B9A"/>
<path d="M220.16 263.776C212.016 263.776 206.856 262.329 203.564 259.152C199.484 255.213 198.639 249.114 198.626 241.166C198.616 234.912 198.467 230.838 198.125 227.545C197.996 226.305 198.906 225.196 200.158 225.069C201.409 224.942 202.529 225.843 202.657 227.082C203.016 230.535 203.173 234.744 203.183 241.158C203.196 249.214 204.228 253.49 206.744 255.918C209.327 258.41 213.995 259.437 221.877 259.242C229.488 259.055 234.729 258.001 238.938 257.153C244.476 256.039 248.477 255.233 253.221 257.478C254.357 258.017 254.837 259.363 254.295 260.488C253.751 261.613 252.391 262.089 251.256 261.55C247.889 259.958 245.031 260.533 239.846 261.576C235.46 262.459 230.003 263.557 221.989 263.754C221.364 263.768 220.754 263.776 220.16 263.776Z" fill="#2E5B9A"/>
<path d="M201.658 224.79L214.125 225.305L210.807 259.392C210.807 259.392 201.514 253.518 201.658 247.195C201.805 240.875 201.658 224.79 201.658 224.79Z" fill="#2E5B9A"/>
<path d="M263.194 227.966C273.734 226.381 277.316 226.881 283.767 238.773C290.217 250.663 298.804 272.072 303.742 274.838C311.178 279.002 313.642 289.211 316.695 288.753C319.748 288.293 321.714 289.63 318.391 292.365C315.069 295.099 309.703 297.429 307.869 296.943C306.035 296.458 304.611 288.606 299.819 286.058C295.028 283.507 296.468 281.413 296.782 279.158C297.097 276.903 282.796 266.522 272.014 253.61C265.427 245.719 262.034 240.512 261.531 235.792C261.028 231.072 263.194 227.966 263.194 227.966Z" fill="#F09959"/>
<path d="M289.324 271.083C286.876 264.932 284.42 254.78 282.112 245.472C278.83 232.234 275.389 229.092 273.21 227.68C270.575 227.026 267.453 227.326 263.194 227.966C263.194 227.966 261.028 231.072 261.531 235.792C262.034 240.512 265.427 245.719 272.014 253.609C277.69 260.407 284.342 266.504 289.324 271.083Z" fill="#E38540"/>
<path d="M266.403 238.431C266.403 238.431 263.599 259.39 260.987 261.521C259.12 263.045 257.797 263.146 256.49 256.895C255.185 250.643 258.521 227.313 258.521 227.313L266.403 238.431Z" fill="#2E5B9A"/>
<path d="M264.169 249.773L238.214 254.093L252.868 233.281L264.019 231.032L270.707 232.555L264.169 249.773Z" fill="#F09959"/>
<path d="M296.782 279.158C295.941 282.518 296.042 285 297.505 286.245C298.967 287.487 304.49 296.734 304.49 296.734L306.212 296.474L302.226 288.015L296.782 279.158Z" fill="#2E5B9A"/>
<path d="M307.869 296.943C309.703 297.429 315.069 295.099 318.391 292.365C321.714 289.63 319.748 288.293 316.695 288.753C316.524 288.779 316.353 288.767 316.184 288.727C314.659 292.101 309.643 294.632 308.025 291.068C306.42 287.536 299.549 280.506 296.781 279.002C296.787 279.057 296.789 279.11 296.782 279.158C296.468 281.413 295.028 283.507 299.819 286.058C304.611 288.606 306.035 296.458 307.869 296.943Z" fill="#2E5B9A"/>
<path d="M210.217 228.806C201.009 245.174 207.299 255.576 218.491 256.637C229.684 257.696 247.352 255.673 257.651 247.195C267.951 238.72 276.404 229.755 275.225 228.419C274.043 227.081 210.217 228.806 210.217 228.806Z" fill="#E38540"/>
<path d="M262.439 241.018C264.324 235.415 266.498 231.116 270.707 231.037C275.132 230.956 277.855 233.235 278.043 240.406C278.268 248.944 278.572 277.222 278.174 289.796C277.873 299.315 280.674 302.361 280.436 312.283C280.259 319.756 288.302 315.981 285.195 319.858C283.058 322.522 276.698 321.65 272.792 321.159C269.31 320.72 274.593 310.387 269.776 307.624C265.642 305.255 265.561 301.405 268.171 298.492C270.782 295.578 268.461 286.959 266.721 280.923C264.98 274.889 262.28 268.361 260.507 254.093C260.001 250.024 261.287 244.44 262.439 241.018Z" fill="#F09959"/>
<path d="M282.442 316.806C281.11 317.209 279.466 317.654 278.035 317.701C275.133 317.796 274.263 314.635 274.071 310.342C273.901 306.593 271.153 300.688 268.332 298.294C268.28 298.362 268.228 298.43 268.171 298.492C265.56 301.405 265.642 305.255 269.776 307.624C274.593 310.387 269.31 320.72 272.791 321.159C276.697 321.65 283.058 322.522 285.195 319.858C287.214 317.338 284.708 317.138 282.442 316.806Z" fill="#2E5B9A"/>
<path d="M268.824 297.424C268.824 297.424 264.592 301.8 264.979 303.62C265.367 305.44 266.67 310.038 266.888 313.582C267.107 317.126 267.3 321.194 267.3 321.194C267.3 321.194 268.824 321.194 268.944 320.766C269.066 320.338 269.912 306.361 269.912 306.361L268.824 297.424Z" fill="#2E5B9A"/>
<path d="M205.782 227.313C205.782 227.313 200.321 250.273 207.221 256.637C214.122 263.001 242.779 257.277 249.528 256.895C254.098 256.637 258.522 262.161 258.522 262.161C258.522 262.161 255.33 249.351 257.506 239.006C259.682 228.662 263.194 227.966 263.194 227.966L258.522 227.313H205.782Z" fill="#75A1DE"/>
<path d="M204.545 221.31C206.881 226.218 202.031 234.696 203.73 237.138C205.431 239.58 215.162 237.48 221.538 232.397C227.915 227.313 239.983 226.196 239.983 226.196L204.545 221.31Z" fill="#A8CEFF"/>
<path d="M214.424 263.144C233.717 263.862 254.025 263.523 254.025 260.675C254.025 257.828 253.154 255.816 238.214 256.966C223.273 258.115 213.119 259.696 208.622 258.69C204.126 257.685 214.424 263.144 214.424 263.144Z" fill="#2E5B9A"/>
<path d="M420.163 229.733H148.335C147.175 229.733 146.234 228.801 146.234 227.652V226.612C146.234 225.462 147.175 224.531 148.335 224.531H420.163C421.324 224.531 422.264 225.462 422.264 226.612V227.652C422.264 228.801 421.324 229.733 420.163 229.733Z" fill="#2E5B9A"/>
<path d="M456.282 154.812C458.151 161.339 453.586 168.064 448.557 169.478C443.529 170.89 439.941 166.455 438.071 159.928C436.202 153.401 438.764 146.966 443.791 145.552C448.82 144.14 454.412 148.285 456.282 154.812Z" fill="#F09959"/>
<path d="M428.088 281.281C428.088 281.281 440.976 301.109 442.716 301.969C444.457 302.832 448.809 303.048 447.177 306.28C445.544 309.512 444.892 322.227 443.368 322.874C441.846 323.52 428.791 325.029 430.749 322.874C432.708 320.719 433.912 321.797 434.9 317.917C435.888 314.039 437.276 306.71 435.428 305.203C433.577 303.694 422.264 290.116 422.264 290.116L428.088 281.281Z" fill="#F09959"/>
<path d="M363.222 289.796C363.222 289.796 347.556 315.37 344.654 317.669C341.753 319.968 332.179 323.417 340.012 323.991C347.845 324.567 351.618 321.405 356.549 319.968C361.48 318.531 367.574 317.669 365.253 313.934C362.932 310.199 363.896 302.044 368.899 296.871C373.903 291.698 363.222 289.796 363.222 289.796Z" fill="#F09959"/>
<path d="M443.169 230.492C443.169 230.492 404.388 229.488 389.011 241.985C380.018 255.492 358.26 295.341 356.569 299.732C357.729 300.882 364.257 302.956 367.159 302.668C375.718 292.56 387.029 283.822 391.529 275.894C397.072 266.124 398.781 261.239 407.775 260.377C416.768 259.514 437.076 256.642 443.169 256.642C449.261 256.642 443.169 230.492 443.169 230.492Z" fill="#6791C9"/>
<path d="M476.989 324.06H474.956L460.379 263.818H464.851L476.989 324.06Z" fill="#2E5B9A"/>
<path d="M416.091 324.06H418.126L434.853 261.689H430.381L416.091 324.06Z" fill="#2E5B9A"/>
<path d="M465.263 227.861L442.715 231.715C442.715 231.715 412.753 231.988 399.058 234.515C386.596 236.814 384.76 250.837 399.058 270.147C407.179 281.117 414.045 289.867 428.088 299.732C431.66 297.135 433.025 296.152 434.013 289.902C432.996 288.522 430.366 279.884 429.549 278.193C421.783 262.111 411.415 256.263 411.272 254.682C413.012 251.88 457.379 269.285 466.2 259.047C474.623 249.272 465.263 227.861 465.263 227.861Z" fill="#75A1DE"/>
<path d="M466.2 177.302C460.261 176.475 454.214 177.594 448.557 181.65C443.614 186.641 438.022 194.87 438.365 208.444C438.8 225.685 435.672 226.792 438.935 231.533C452.547 237.101 475.827 261.021 470.345 235.376C466.374 216.808 479.051 202.967 468.825 182.369C467.992 180.692 466.952 179.066 466.2 177.302Z" fill="#F37168"/>
<path d="M438.36 214.933C438.097 223.921 436.814 226.568 437.794 229.386C443.344 229.947 453.494 232.147 456.032 235.665C458.932 239.687 461.834 240.262 460.48 237.293C459.126 234.323 455.548 230.108 461.061 215.645C466.571 201.182 469.183 191.412 463.767 181.355L438.36 214.933Z" fill="#D54A41"/>
<path d="M466.2 177.302C462.543 168.728 461.645 159.095 461.645 159.095L452.072 161.896C452.072 161.896 457.511 173.964 452.29 178.274C451.18 179.19 449.891 180.302 448.557 181.65C454.214 177.594 460.262 176.475 466.2 177.302Z" fill="#F09959"/>
<path d="M461.933 161.377C461.367 160.878 460.657 160.254 459.912 159.601L452.103 161.887L452.087 161.929C452.275 162.356 454.264 166.953 454.526 171.375C456.854 169.976 459.401 167.696 462.314 163.713C462.156 162.83 462.031 162.042 461.933 161.377Z" fill="#E38540"/>
<path d="M459.469 179.998C449.609 183.413 450.703 193.703 441.628 208.877C436.931 216.729 432.569 216.611 432.569 216.611C432.569 216.611 421.556 216.7 408.234 215.086C399.891 214.075 399.362 216.535 405.164 218.59C416.866 222.733 429.009 227.194 438.8 226.117C448.591 225.038 465.336 200.296 466.2 193.854C467.395 184.946 464.434 178.278 459.469 179.998Z" fill="#F09959"/>
<path d="M454.394 266.077C453.782 266.077 453.156 266.069 452.513 266.052C444.499 265.856 439.042 264.758 434.656 263.875C429.471 262.832 426.613 262.256 423.246 263.85C422.111 264.387 420.751 263.912 420.209 262.787C419.665 261.661 420.145 260.315 421.281 259.777C426.025 257.531 430.027 258.337 435.564 259.451C439.775 260.299 445.014 261.354 452.625 261.54C461.197 261.75 466.441 260.477 469.12 257.535C471.512 254.907 472.217 250.527 471.337 243.749C471.039 241.453 470.741 239.545 470.479 237.862C469.74 233.137 469.253 230.015 469.856 225.203C470.416 220.717 471.919 214.733 475.399 203.122C475.757 201.927 477.026 201.247 478.232 201.601C479.438 201.956 480.127 203.212 479.769 204.406C473.257 226.125 473.588 228.246 474.982 237.172C475.249 238.882 475.552 240.821 475.856 243.173C476.919 251.354 475.853 256.879 472.504 260.557C469.052 264.349 463.424 266.077 454.394 266.077Z" fill="#2E5B9A"/>
<path d="M364.286 311.351C353.891 316.386 348.298 319.273 344.965 318.997C344.178 318.933 343.526 318.852 342.979 318.768C339.272 320.938 333.354 323.503 340.012 323.991C347.845 324.567 351.618 321.405 356.549 319.968C361.482 318.531 367.574 317.669 365.253 313.934C364.809 313.218 364.485 312.34 364.286 311.351Z" fill="#D54A41"/>
<path d="M443.85 302.39C443.594 310.542 442.463 318.62 437.429 320.146C436.096 320.551 434.879 320.609 433.803 320.467C433.012 321.436 432.046 321.447 430.748 322.874C428.791 325.029 441.846 323.52 443.368 322.874C444.891 322.227 445.544 309.512 447.176 306.28C448.517 303.625 445.819 303.004 443.85 302.39Z" fill="#D54A41"/>
<path d="M403.809 224.99H370.785C369.898 224.99 369.092 224.481 368.72 223.684L355.374 195.236C354.844 194.106 355.338 192.764 356.479 192.239C357.622 191.713 358.976 192.204 359.506 193.335L372.238 220.476H403.809C405.068 220.476 406.087 221.487 406.087 222.733C406.087 223.979 405.068 224.99 403.809 224.99Z" fill="#75A1DE"/>
<path d="M410.717 215.37C404.044 215.275 397.427 211.335 394.139 211.91C390.852 212.484 380.117 219.859 381.471 220.148C382.825 220.435 391.335 216.066 391.625 215.998C391.915 215.932 393.752 219.026 398.298 220.161C402.843 221.297 398.33 216.787 412.419 221.002C421.581 223.742 410.717 215.37 410.717 215.37Z" fill="#F09959"/>
<path d="M465.219 169.478L466.2 177.302C466.2 177.302 457.565 177.81 453.268 180.206C448.972 182.599 442.631 189.518 442.631 189.518L447.811 180.684L448.557 175.033L465.219 169.478Z" fill="#F2E5DE"/>
<path d="M461.544 179.056C455.13 177.865 452.163 183.557 448.005 192.848C443.847 202.14 436.747 213.424 435.336 214.88C433.925 216.334 411.547 214.88 411.547 214.88C411.547 214.88 410.87 221.297 411.547 222.063C412.223 222.828 416.091 222.733 416.091 222.733C416.091 222.733 417.639 223.957 419.089 224.926C420.541 225.894 432.822 227.714 438.528 227.427C444.232 227.139 449.455 226.66 450.228 225.798C451.003 224.937 466.571 201.182 467.54 192.657C468.506 184.132 464.817 179.664 461.544 179.056Z" fill="#F2E5DE"/>
<path d="M442.631 139.975C430.501 140.55 432.404 158.624 432.404 158.624C432.404 158.624 435.554 159.588 442.154 158.51C441.646 156.57 441.864 151.614 441.864 151.614C441.864 151.614 442.631 155.637 443.604 158.079C445 158.713 446.578 158.15 449.261 157.509C450.64 163.251 454.534 165.678 457.2 166.508C460.146 167.426 463.264 168.519 466.746 166.795C470.227 165.07 468.313 147.446 466.464 143.903C463.689 138.582 459.077 133.822 451.099 136.335C447.098 137.597 442.631 139.975 442.631 139.975Z" fill="#303C60"/>
<path d="M463.725 161.44L468.684 168.615C468.684 168.615 463.188 182.217 479.171 188.378C491.69 193.205 490.216 201.708 484.558 210.26C478.903 218.811 487.944 226.28 487.944 226.28C487.944 226.28 489.322 216.806 501.486 215.018C518.072 212.581 522.767 190.526 510.38 179.498C500.129 170.372 497.01 177.929 490.071 169.74C483.133 161.552 470.035 167.082 470.035 167.082L465.234 160.147L463.725 161.44Z" fill="#303C60"/>
<path d="M516.085 201.671C516.021 201.671 515.956 201.655 515.894 201.623C515.702 201.518 515.632 201.279 515.738 201.089C519.918 193.522 516.506 184.355 514.791 181.872C514.61 181.61 514.438 181.344 514.256 181.063C512.57 178.455 510.472 175.21 499.286 173.216C496.605 172.739 494.433 171.157 492.131 169.484C487.359 166.015 481.95 162.083 470.199 167.438C470.001 167.53 469.765 167.443 469.673 167.247C469.582 167.05 469.669 166.816 469.869 166.726C482.044 161.176 487.652 165.254 492.6 168.852C494.825 170.469 496.928 171.997 499.426 172.444C510.952 174.499 513.154 177.904 514.924 180.639C515.102 180.915 515.271 181.176 515.445 181.427C516.479 182.925 517.756 186.025 518.279 189.576C518.733 192.655 518.78 197.219 516.433 201.466C516.362 201.597 516.225 201.671 516.085 201.671Z" fill="#303C60"/>
<path d="M461.075 168.747C460.284 168.747 459.428 168.68 458.507 168.543C454.279 167.916 448.607 165.535 448.161 152.153C448.153 151.936 448.325 151.755 448.543 151.747C448.77 151.737 448.945 151.91 448.954 152.128C449.137 157.666 450.249 161.766 452.254 164.313C453.781 166.25 455.805 167.348 458.624 167.766C462.571 168.352 465.189 167.627 466.405 165.61C466.517 165.425 466.762 165.364 466.949 165.475C467.138 165.586 467.198 165.828 467.086 166.013C465.989 167.832 463.972 168.747 461.075 168.747Z" fill="#303C60"/>
<path d="M82.5193 178.242C68.4407 186.217 48.8588 219.361 52.9927 224.771C57.1267 230.179 79.3196 215.956 79.3196 215.956L82.5193 178.242Z" fill="#96CFE0"/>
<path d="M108.822 139.806C103.445 139.661 105.44 135.703 99.2584 137.283C96.0083 138.115 98.4076 139.438 94.1854 139.008C89.9628 138.576 87.8851 138.145 87.353 140.874C86.8206 143.605 86.5633 144.467 84.5325 144.898C82.5017 145.328 81.5846 148.921 84.5325 151.364C87.4805 153.806 86.0474 154.812 85.3946 156.823C84.7419 158.835 86.9669 158.979 88.1753 160.845C89.3837 162.714 87.0628 163.067 88.8035 164.687C90.5442 166.305 92.9857 166.162 92.9857 166.162L100.314 152.245L108.822 139.806Z" fill="#303C60"/>
<path d="M218.348 306.843C218.348 306.843 226.181 307.059 232.273 304.687C238.365 302.316 242.499 298.654 241.412 302.962C240.324 307.273 235.32 314.667 230.968 315.388C226.616 316.108 225.093 320.851 222.7 320.851C220.306 320.851 216.825 315.388 210.733 312.659C205.18 310.171 218.348 306.843 218.348 306.843Z" fill="#2E5B9A"/>
<path d="M156.621 306.116C156.621 306.116 159.916 310.615 165.648 313.745C171.569 316.977 178.401 318.533 174.165 319.995C169.93 321.457 163.736 322.593 157.696 320.856C153.458 319.637 148.491 319.382 147.179 317.4C145.868 315.417 148.724 310.437 147.536 302.996C146.584 297.034 156.621 306.116 156.621 306.116Z" fill="#2E5B9A"/>
<path d="M119.943 233.792C119.943 233.792 165.316 250.619 168.973 255.325C172.629 260.028 220.323 302.882 220.323 306.041C220.323 309.203 212.2 314.951 212.2 314.951C212.2 314.951 171.294 290.094 161.14 277.451C150.985 264.806 126.203 258.711 113.028 257.541C99.8534 256.369 119.943 233.792 119.943 233.792Z" fill="#3E6BAB"/>
<path d="M121.683 233.792C121.683 233.792 152.726 232.642 159.399 233.792C166.071 234.941 180.707 234.928 171.134 261.689C163.63 282.664 161.155 309.22 161.155 309.22L146.234 312.851C146.234 312.851 146.826 265.098 153.945 252.384C148.761 253.231 139.245 254.881 126.056 258.618C101.59 265.548 88.1753 262.077 88.1753 262.077L84.5325 249.433L121.683 233.792Z" fill="#4476BD"/>
<path d="M95.7603 154.407L88.1753 176.604L97.7577 182.854L103.188 163.674L95.7603 154.407Z" fill="#A86B48"/>
<path d="M98.6149 179.827L103.188 163.674L95.7604 154.407L92.9858 162.527C93.9435 169.86 96.2568 175.926 98.6149 179.827Z" fill="#7A4E34"/>
<path d="M115.108 158.165C115.354 164.916 112.006 170.759 106.685 171.278C101.363 171.799 96.5064 166.769 95.8372 160.046C95.1678 153.324 98.9392 147.453 104.261 146.932C109.582 146.413 114.72 147.511 115.108 158.165Z" fill="#A86B48"/>
<path d="M84.5324 175.958C61.2501 191.532 75.7311 216.698 80.8435 235.089C85.1981 250.753 85.0562 260.22 85.7088 260.22C86.3616 260.22 102.374 257.849 111.512 249.66C120.651 241.471 126.829 233.539 126.829 233.539C126.829 233.539 115.121 231.474 111.294 216.472C109.352 208.857 110.235 204.723 105.807 192.653C101.379 180.586 84.5324 175.958 84.5324 175.958Z" fill="#A2DFF2"/>
<path d="M84.5325 175.958L87.0261 169.914C87.0261 169.914 94.932 175.087 98.0869 177.529C101.242 179.972 103.188 180.547 103.188 180.547C103.188 180.547 104.328 189.21 103.588 188.423C94.2566 178.518 84.5325 175.958 84.5325 175.958Z" fill="#A2DFF2"/>
<path d="M74.2141 324.06H76.247L90.8247 263.818H86.3523L74.2141 324.06Z" fill="#2E5B9A"/>
<path d="M135.11 324.06H133.077L116.35 261.689H120.822L135.11 324.06Z" fill="#2E5B9A"/>
<path d="M96.8601 266.075C88.7166 266.075 83.5574 264.628 80.2652 261.45C76.1839 257.512 75.3394 251.412 75.3272 243.465C75.3014 226.757 74.3686 223.302 69.6195 213.1C69.0927 211.968 69.592 210.627 70.7348 210.105C71.8777 209.584 73.2313 210.078 73.7579 211.211C78.7776 221.995 79.8571 225.959 79.8842 243.459C79.8965 251.512 80.9282 255.789 83.445 258.217C86.0268 260.709 90.6937 261.736 98.5773 261.541C106.189 261.354 111.429 260.299 115.639 259.451C121.175 258.338 125.177 257.532 129.921 259.777C131.057 260.316 131.538 261.662 130.994 262.787C130.452 263.912 129.091 264.387 127.957 263.851C124.59 262.256 121.732 262.832 116.546 263.875C112.161 264.758 106.703 265.856 98.6897 266.053C98.0641 266.069 97.4537 266.075 96.8601 266.075Z" fill="#2E5B9A"/>
<path d="M197.461 224.729H164.436C163.178 224.729 162.157 223.72 162.157 222.472C162.157 221.226 163.178 220.215 164.436 220.215H196.006L208.74 193.074C209.27 191.944 210.624 191.452 211.765 191.978C212.908 192.504 213.402 193.845 212.872 194.976L199.526 223.423C199.154 224.22 198.346 224.729 197.461 224.729Z" fill="#3E6BAB"/>
<path d="M85.3945 198.632C85.3945 198.632 91.1969 216.161 98.3773 223.417C105.558 230.672 120.008 233.111 124.533 232.826C120.926 231.39 114.057 227.302 111.294 216.472C109.352 208.857 110.235 204.722 105.807 192.653C102.52 183.695 92.3913 178.837 87.389 176.928C93.6326 181.371 101.439 188.685 103.838 194.251C106.501 200.43 85.3945 198.632 85.3945 198.632Z" fill="#96CFE0"/>
<path d="M165.481 214.016C165.481 214.016 175.488 209.491 176.577 209.921C177.664 210.353 188.76 216.99 188.76 218.089C188.76 219.189 178.969 213.991 178.969 213.991C178.969 213.991 180.058 216.864 179.406 218.242C178.753 219.619 171.226 219.619 164.436 219.189C157.648 218.758 165.481 214.016 165.481 214.016Z" fill="#A86B48"/>
<path d="M85.7144 185.09C76.4885 203.82 108.137 222.806 126.912 224.494C145.688 226.183 167.995 220.096 167.995 220.096L165.48 214.016C165.48 214.016 127.864 209.154 126.912 208.472C125.96 207.792 89.0935 178.231 85.7144 185.09Z" fill="#A2DFF2"/>
<path d="M97.7101 155.039C98.5653 157.267 97.9382 159.569 96.3096 160.183C94.681 160.797 92.6676 159.488 91.8124 157.26C90.9573 155.032 91.5843 152.73 93.2128 152.116C94.8415 151.504 96.855 152.811 97.7101 155.039Z" fill="#A86B48"/>
<path d="M115.121 140.779C117.669 139.725 120.54 138.596 119.652 142.886C119.266 144.754 119.652 144.227 120.329 145.952C121.006 147.675 118.623 149.029 117.85 149.987C117.075 150.944 118.976 151.986 117.429 153.135C115.881 154.284 113.841 152.71 112.4 153.135C108.096 154.407 108.628 151.054 106.21 150.358C103.793 149.66 102.608 149.768 102.149 151.301C101.69 152.834 103.841 157.876 102.004 157.397C100.166 156.918 99.7526 160.989 99.2583 163.289C98.7641 165.588 97.5034 161.701 97.5849 159.072C97.7099 155.039 96.6991 153.345 95.1992 152.216C93.6993 151.088 93.0607 140.827 100.314 140.444C107.567 140.06 107.613 139.367 110.707 138.719C113.802 138.071 113.959 141.26 115.121 140.779Z" fill="#303C60"/>
<path d="M521.752 257.952C526.375 262.134 524.365 266.317 520.946 274.084C517.528 281.85 516.925 310.529 516.925 310.529L519.74 310.131C519.74 310.131 519.338 280.656 523.158 272.689C526.979 264.723 528.587 260.741 532.005 263.33C535.424 265.919 521.752 257.952 521.752 257.952Z" fill="#74B570"/>
<path d="M519.211 252.538C519.773 250.058 523.107 247.378 527.567 245.102C526.904 248.758 524.779 254.735 526.979 255.962C529.946 257.614 527.267 249.269 528.413 244.682C532.601 242.656 537.639 241.001 542.279 240.177C542.271 240.195 542.266 240.211 542.26 240.228C539.646 246.801 536.228 249.389 537.636 250.384C538.694 251.134 542.143 243.543 546.698 239.651C550.116 239.471 553.008 239.929 554.718 241.271C557.363 243.344 559.139 245.184 556.479 251.498C554.959 252.573 552.992 253.344 550.705 253.571C544.673 254.169 541.858 254.367 546.08 256.36C548.148 257.335 551.613 256.305 554.424 255.676C553.512 257.34 552.391 259.223 551.03 261.368C550.166 262.729 549.214 263.909 548.203 264.931C546.26 265.3 544.564 265.303 543.668 264.923C540.852 263.728 533.615 259.943 531.805 261.537C530.034 263.096 545.21 264.084 544.159 268.047C536.801 272.244 528.384 270.247 526.896 266.393C524.898 261.217 517.52 259.998 519.211 252.538Z" fill="#9CD499"/>
<path d="M534.418 280.855C526.375 274.88 518.132 280.456 513.909 286.83C509.687 293.202 512.703 307.541 512.703 307.541C512.703 307.541 514.311 307.541 514.311 306.944C514.311 306.346 509.887 290.016 520.344 282.646C526.885 278.038 531.603 280.257 532.207 282.448C532.809 284.639 529.593 288.622 529.593 288.622L534.418 280.855Z" fill="#74B570"/>
<path d="M515.92 268.574C523.963 268.574 526.577 280.922 524.365 288.09C522.154 295.261 519.136 308.603 519.136 308.603L517.126 306.612C517.126 306.612 524.767 287.892 522.958 279.527C521.148 271.163 516.724 269.768 515.92 269.768C515.116 269.768 515.92 268.574 515.92 268.574Z" fill="#9CD499"/>
<path d="M522.666 288.147C523.231 287.403 523.931 286.791 524.782 286.383C524.672 286.978 524.532 287.549 524.366 288.09C523.357 291.358 522.183 295.905 521.202 299.888C521.114 299.379 520.975 298.592 520.764 297.38C520.713 297.093 520.674 296.782 520.647 296.453C521.434 293.8 522.18 290.908 522.666 288.147Z" fill="#74B570"/>
<path d="M524.865 288.206C540.146 281.832 532.094 273.087 545.567 278.863C546.516 279.269 547.671 280.296 548.83 281.71C547.629 282.047 546.177 282.29 544.561 282.05C540.539 281.452 541.947 284.639 548.583 285.435C549.833 285.585 550.848 285.793 551.691 286.085C554.853 292.099 556.277 300.011 549.588 302.761C548.27 303.304 546.641 303.614 544.826 303.73C542.763 302.105 545.331 292.701 542.148 293.998C539.093 295.246 543.106 302.06 542.556 303.777C539.54 303.723 536.201 303.235 533.011 302.452C531.748 301.75 530.783 300.811 530.486 299.576C529.481 295.393 536.116 292.804 536.318 289.219C536.502 285.924 533.885 296.469 526.953 298.022C520.684 295.122 517.722 291.185 524.865 288.206Z" fill="#9CD499"/>
<path d="M513.976 276.938C515.585 273.553 511.362 272.755 511.564 275.344C511.741 277.64 511.762 283.215 509.386 284.734C505.29 284.294 499.715 282.659 495.502 280.167C495.448 279.83 495.5 279.484 495.679 279.129C497.489 275.544 509.15 272.557 505.532 271.362C502.65 270.41 497.598 276.028 493.528 278.857C491.083 277.019 489.446 274.83 489.446 272.386C489.446 269.077 493.505 265.332 498.754 263.541C501.117 263.778 503.31 265.056 506.738 266.981C511.801 269.823 510.629 265.227 505.843 262.501C509.975 262.712 514.096 264.461 517.134 268.64C517.134 268.64 516.848 270.426 518.755 273.189C523.962 280.725 517.953 285.124 510.771 284.839C511.178 282.853 512.866 279.277 513.976 276.938Z" fill="#9CD499"/>
<path d="M533.935 280.517C537.867 283.527 542.234 287.046 547.597 289.435C552.959 291.825 551.887 299.615 551.887 299.615C551.887 299.615 552.691 292.888 548.222 290.586C543.754 288.285 540.805 285.54 537.408 285.01C534.013 284.478 532.135 283.947 532.135 283.947C532.135 283.947 533.208 281.823 532.583 281.027C531.958 280.23 533.935 280.517 533.935 280.517Z" fill="#74B570"/>
<path d="M553.316 245.177C538.928 248.983 528.382 258.101 526.416 260.314C524.45 262.526 524.45 263.146 524.45 263.146L525.97 265.979L526.685 265.624C526.685 265.624 525.523 263.235 528.561 260.137C533.802 254.793 540.178 250.576 544.558 248.717C548.938 246.859 553.316 245.177 553.316 245.177Z" fill="#74B570"/>
<path d="M513.599 324.06H519.097C523.006 324.06 526.175 320.922 526.175 317.05V304.541H506.521V317.05C506.521 320.922 509.69 324.06 513.599 324.06Z" fill="#75A1DE"/>
<path d="M526.175 308.147H506.521V306.777H526.175V308.147Z" fill="white"/>
<path d="M526.175 310.081H506.521V309.275H526.175V310.081Z" fill="white"/>
<path d="M280.46 43.3081C280.46 28.5567 268.482 16.5747 253.632 16.3877C238.715 16.1975 226.336 28.0973 226.098 42.8713C225.983 50.0834 228.732 56.6571 233.29 61.5543C235.39 63.8095 236.555 66.7643 236.555 69.8336V81.9026C236.555 89.7096 243.005 96.0979 250.889 96.0979H255.667C263.55 96.0979 270 89.7096 270 81.9026V69.8352C270 66.7401 271.205 63.7805 273.315 61.4995C277.752 56.7087 280.46 50.3219 280.46 43.3081Z" fill="#F5DC95"/>
<path d="M255.333 90.53H251.222C244.44 90.53 238.892 85.0347 238.892 78.3175V67.9346C238.892 65.2958 237.89 62.7521 236.081 60.8112C232.161 56.599 229.796 50.9425 229.895 44.738C230.099 32.1273 240.583 21.9523 253.281 21.9523C253.382 21.9523 253.483 21.9539 253.584 21.9556C266.358 22.1168 276.662 32.4239 276.662 45.1151C276.662 51.1489 274.333 56.6442 270.516 60.7661C268.7 62.7279 267.663 65.2732 267.663 67.9362V78.3175C267.663 85.0347 262.115 90.53 255.333 90.53Z" fill="#FAEECA"/>
<path d="M257.296 74.6726H248.345C247.923 74.6726 247.572 74.355 247.534 73.9408C247.518 73.7683 245.847 56.6537 238.121 51.8596C237.738 51.6242 237.625 51.1261 237.862 50.7489C238.101 50.3717 238.603 50.2572 238.984 50.4942C246.522 55.169 248.664 69.5916 249.076 73.0606H256.435C256.406 71.871 256.474 69.5722 257.168 66.5981C258.094 62.6229 260.364 56.6263 265.922 50.6312C266.226 50.304 266.741 50.283 267.073 50.5829C267.403 50.8843 267.426 51.3953 267.121 51.7225C256.961 62.6777 258.092 73.6667 258.103 73.7763C258.129 74.0036 258.056 74.2325 257.902 74.4034C257.749 74.5759 257.527 74.6726 257.296 74.6726Z" fill="#94BDF2"/>
<path d="M240.959 43.7853C240.422 43.7853 239.958 43.8836 239.589 44.1013C238.79 44.5687 238.376 45.6955 238.36 47.4478C238.344 49.3064 238.757 50.5009 239.589 51.0006C241.597 52.2064 246.288 49.9657 250.788 47.6138C247.15 45.6923 243.332 43.7853 240.959 43.7853ZM254.244 47.6186C258.712 49.9721 263.388 52.2241 265.451 51.0183C266.316 50.5154 266.765 49.3064 266.789 47.43C266.814 45.6568 266.426 44.5171 265.639 44.0416C263.643 42.839 258.798 45.2264 254.244 47.6186ZM263.996 52.9624C260.974 52.9624 256.853 50.8362 252.514 48.531C246.909 51.4874 241.675 54.1392 238.746 52.3805C237.369 51.5535 236.71 49.9351 236.733 47.4332C236.754 45.0765 237.436 43.4887 238.76 42.7133C241.695 40.9917 246.94 43.7385 252.518 46.703C258.204 43.6982 263.56 40.9014 266.485 42.6649C267.798 43.458 268.448 45.0668 268.417 47.451C268.386 49.9302 267.665 51.597 266.278 52.4079C265.619 52.7931 264.851 52.9624 263.996 52.9624Z" fill="#94BDF2"/>
<path d="M256.157 99.928H250.949C249.113 99.928 247.612 98.4417 247.612 96.6234V96.1398C247.612 94.3231 249.113 92.8352 250.949 92.8352H256.157C257.991 92.8352 259.493 94.3231 259.493 96.1398V96.6234C259.493 98.4417 257.991 99.928 256.157 99.928Z" fill="#94BDF2"/>
<path d="M235.766 73.2219V81.759C235.766 89.9367 242.52 96.6265 250.776 96.6265H255.779C264.036 96.6265 270.79 89.9367 270.79 81.759V73.2219H235.766Z" fill="#94BDF2"/>
<path d="M270.641 75.9092H236.355C235.281 75.9092 234.402 75.0387 234.402 73.9748V73.7604C234.402 72.6965 235.281 71.826 236.355 71.826H270.641C271.716 71.826 272.594 72.6965 272.594 73.7604V73.9748C272.594 75.0387 271.716 75.9092 270.641 75.9092Z" fill="#9EC8FF"/>
<path d="M270.764 78.9703L236.737 83.134C235.671 83.2646 234.69 82.507 234.56 81.4511L234.532 81.2383C234.4 80.1825 235.165 79.2121 236.231 79.0815L270.259 74.9177C271.325 74.7871 272.305 75.5448 272.437 76.6006L272.463 76.8134C272.594 77.8693 271.83 78.8397 270.764 78.9703Z" fill="#9EC8FF"/>
<path d="M270.764 84.8687L236.737 89.0325C235.671 89.1631 234.69 88.4054 234.56 87.3495L234.532 87.1368C234.4 86.0809 235.165 85.1105 236.231 84.9799L270.259 80.8161C271.325 80.6856 272.305 81.4432 272.437 82.4991L272.463 82.7118C272.594 83.7677 271.83 84.7381 270.764 84.8687Z" fill="#9EC8FF"/>
<path d="M268.664 91.1811L240.324 94.6485C239.346 94.7678 238.446 94.073 238.326 93.1042L238.259 92.5755C238.139 91.6067 238.84 90.7152 239.818 90.596L268.159 87.1286C269.138 87.0093 270.036 87.7041 270.158 88.6729L270.223 89.2016C270.344 90.1704 269.642 91.0618 268.664 91.1811Z" fill="#9EC8FF"/>
<path d="M514.033 98.8334H532.3C532.3 108.76 524.053 116.927 514.033 116.927C504.012 116.927 495.767 108.76 495.767 98.8334C495.767 88.9083 504.012 80.742 514.033 80.742V98.8334Z" fill="#9EC8FF"/>
<path d="M535.359 96.3008C535.359 86.308 527.181 78.2077 517.092 78.2077V96.3008H535.359Z" fill="#F39892"/>
<path d="M498.825 96.3009C498.825 106.294 507.003 114.394 517.092 114.394C507.072 114.394 498.825 106.226 498.825 96.3009Z" fill="#F39892"/>
<path d="M517.092 78.2077C507.003 78.2077 498.825 86.308 498.825 96.3008C498.825 86.3757 507.072 78.2077 517.092 78.2077Z" fill="#F39892"/>
<path d="M517.092 114.394C527.181 114.394 535.359 106.294 535.359 96.3009C535.359 106.226 527.113 114.394 517.092 114.394Z" fill="#F39892"/>
<path d="M160.523 98.2998H156.534V86.8659H160.523V98.2998Z" fill="#9EC8FF"/>
<path d="M211.659 98.2998H207.669V90.5864H211.659V98.2998Z" fill="#9EC8FF"/>
<path d="M177.431 98.2998H173.441V71.5487H177.431V98.2998Z" fill="#9EC8FF"/>
<path d="M185.885 98.2998H181.896V86.2759H185.885V98.2998Z" fill="#9EC8FF"/>
<path d="M194.338 98.2998H190.349V82.873H194.338V98.2998Z" fill="#9EC8FF"/>
<path d="M168.977 98.2998H164.988V79.3169H168.977V98.2998Z" fill="#9EC8FF"/>
<path d="M202.82 98.2998H198.831V74.9194H202.82V98.2998Z" fill="#9EC8FF"/>
<path d="M50.2046 65.1474L29.2822 52.4739L25.4978 76.4749C35.3266 78.0096 45.0743 73.4476 50.2046 65.1474Z" fill="#A2DFF2"/>
<path d="M50.2265 65.1184C50.283 65.0265 50.3567 64.9008 50.3538 64.9056C54.7726 57.5743 54.9512 48.4681 50.8969 40.9948C43.4929 44.8362 47.902 42.502 29.2822 52.4739C50.2391 65.1684 46.9844 63.2098 50.2265 65.1184Z" fill="#9CD499"/>
<path d="M6.2832 44.0802L29.2822 52.4739L50.8573 40.9191C40.7654 22.4327 13.6004 24.6508 6.2832 44.0802Z" fill="#9EC8FF"/>
<path d="M25.4977 76.4749L29.2822 52.4738L6.28315 44.0801C0.814097 58.6026 10.5212 74.1358 25.4977 76.4749Z" fill="#F39892"/>
<path d="M4.77813 48.0537C5.20649 48.0537 5.60002 48.1617 5.94049 48.352C6.13937 47.2639 6.41621 46.1838 6.77556 45.1199L19.2639 49.677L19.2629 49.6657C19.2373 49.1015 19.4518 48.5744 19.8057 48.1569L18.5552 47.7007L7.34388 43.6078C8.26374 41.3913 9.48714 39.3747 10.956 37.5919C10.4272 37.4 9.99476 37.0293 9.70929 36.5553C8.12346 38.4768 6.80502 40.6546 5.81762 43.0517L5.80411 43.0469L5.52092 43.7997L5.23546 44.5573L5.24896 44.5621C4.85332 45.726 4.55012 46.9076 4.33398 48.0989C4.47997 48.0699 4.62856 48.0537 4.77813 48.0537Z" fill="white"/>
<path d="M49.938 64.0109L49.7829 63.9207C48.9281 63.4194 48.5567 63.2017 46.853 62.1717L30.913 52.5174L44.1454 45.431C46.0884 44.3945 46.8849 43.9818 48.8585 42.9598C49.3405 42.71 49.8927 42.4246 50.5488 42.0845C53.9973 49.0048 53.7717 57.2857 49.938 64.0109ZM26.4294 75.7898L29.8981 53.7925L38.9252 59.2604C42.5646 61.4656 44.6466 62.7278 45.9574 63.5193L49.0738 65.4069C44.1027 72.8737 35.3683 76.8795 26.4294 75.7898ZM51.9468 41.2527L51.9603 41.2447L51.5731 40.5354L51.5489 40.4935L51.2325 39.9099L51.2203 39.9164C48.779 35.7155 45.2981 32.3641 41.1114 30.2041C37.0112 28.0875 32.3502 27.1413 27.63 27.4669C22.0804 27.8473 17.0244 29.9091 13.008 33.2427C13.48 33.5264 13.8416 33.9681 14.0423 34.4904C17.8043 31.3647 22.5418 29.4319 27.7428 29.0741C36.8198 28.4486 45.1748 32.8494 49.7428 40.5999L43.3708 44.0125C42.0553 44.7137 40.2163 45.6986 37.1374 47.3493C35.1648 48.4068 32.6827 49.7367 29.5037 51.439L29.3073 51.5453L28.6665 51.1569L28.6316 51.3777L24.1442 49.7399C24.1488 50.3057 23.9159 50.8296 23.5443 51.2391L28.3754 53.0026L24.8217 75.5384C18.1101 74.2552 12.3028 70.1672 8.79868 64.227C6.70425 60.6757 5.61806 56.7247 5.56907 52.7463C5.31518 52.8366 5.04827 52.8898 4.7781 52.8898C4.47994 52.8898 4.20018 52.8349 3.94189 52.7382C3.98909 57.002 5.14966 61.2351 7.39333 65.0394C11.1455 71.4019 17.3738 75.7737 24.5706 77.131L24.5685 77.1455L25.3702 77.2713L26.1761 77.397L26.1783 77.3825C27.2192 77.5114 28.2621 77.5759 29.3026 77.5759C32.9618 77.5759 36.5863 76.7844 39.9565 75.2289C44.2715 73.2397 47.8964 70.1285 50.486 66.2081L50.5024 66.2178L50.6617 65.9599L50.9211 65.5375C50.961 65.473 51.0087 65.3924 51.0359 65.3473L51.053 65.3199L51.0655 65.2973L51.3236 64.8798L51.3119 64.8718C55.4695 57.6339 55.7065 48.6953 51.9468 41.2527Z" fill="#E7F3FE"/>
<path d="M163.448 56.9165H95.9776C95.2433 56.9165 94.6479 56.3265 94.6479 55.5995V26.8414C94.6479 26.1144 95.2433 25.5244 95.9776 25.5244H163.448C164.182 25.5244 164.777 26.1144 164.777 26.8414V55.5995C164.777 56.3265 164.182 56.9165 163.448 56.9165Z" fill="#9EC8FF"/>
<path d="M161.786 55.4431H97.6398C97.0466 55.4431 96.5657 54.966 96.5657 54.3792V34.8369C96.5657 34.2485 97.0466 33.773 97.6398 33.773H161.786C162.379 33.773 162.86 34.2485 162.86 34.8369V54.3792C162.86 54.966 162.379 55.4431 161.786 55.4431Z" fill="white"/>
<path d="M99.6913 30.2847H98.1344C97.8056 30.2847 97.5391 30.0203 97.5391 29.6947V28.4244C97.5391 28.0988 97.8056 27.8344 98.1344 27.8344H99.6913C100.02 27.8344 100.286 28.0988 100.286 28.4244V29.6947C100.286 30.0203 100.02 30.2847 99.6913 30.2847Z" fill="white"/>
<path d="M104.686 30.2847H103.13C102.801 30.2847 102.534 30.0203 102.534 29.6947V28.4244C102.534 28.0988 102.801 27.8344 103.13 27.8344H104.686C105.015 27.8344 105.282 28.0988 105.282 28.4244V29.6947C105.282 30.0203 105.015 30.2847 104.686 30.2847Z" fill="white"/>
<path d="M109.682 30.2847H108.125C107.796 30.2847 107.53 30.0203 107.53 29.6947V28.4244C107.53 28.0988 107.796 27.8344 108.125 27.8344H109.682C110.011 27.8344 110.277 28.0988 110.277 28.4244V29.6947C110.277 30.0203 110.011 30.2847 109.682 30.2847Z" fill="white"/>
<path d="M160.162 38.522H125.096C124.52 38.522 124.048 38.0545 124.048 37.4822C124.048 36.9116 124.52 36.4441 125.096 36.4441H160.162C160.74 36.4441 161.212 36.9116 161.212 37.4822C161.212 38.0545 160.74 38.522 160.162 38.522Z" fill="#9EC8FF"/>
<path d="M133.788 54.5518H98.7214C98.1443 54.5518 97.6724 54.0843 97.6724 53.5136C97.6724 52.9414 98.1443 52.4739 98.7214 52.4739H133.788C134.364 52.4739 134.836 52.9414 134.836 53.5136C134.836 54.0843 134.364 54.5518 133.788 54.5518Z" fill="#9EC8FF"/>
<path d="M140.248 54.5518H136.619C136.422 54.5518 136.26 54.3922 136.26 54.1971V52.8302C136.26 52.6351 136.422 52.4739 136.619 52.4739H140.248C140.445 52.4739 140.606 52.6351 140.606 52.8302V54.1971C140.606 54.3922 140.445 54.5518 140.248 54.5518Z" fill="#9EC8FF"/>
<path d="M145.718 54.5518H142.089C141.892 54.5518 141.73 54.3922 141.73 54.1971V52.8302C141.73 52.6351 141.892 52.4739 142.089 52.4739H145.718C145.915 52.4739 146.076 52.6351 146.076 52.8302V54.1971C146.076 54.3922 145.915 54.5518 145.718 54.5518Z" fill="#9EC8FF"/>
<path d="M160.5 43.05H102.43C102.039 43.05 101.719 42.7325 101.719 42.344C101.719 41.9555 102.039 41.6395 102.43 41.6395H160.5C160.891 41.6395 161.212 41.9555 161.212 42.344C161.212 42.7325 160.891 43.05 160.5 43.05Z" fill="#9EC8FF"/>
<path d="M160.5 46.0918H102.43C102.039 46.0918 101.719 45.7742 101.719 45.3873C101.719 44.9988 102.039 44.6813 102.43 44.6813H160.5C160.891 44.6813 161.212 44.9988 161.212 45.3873C161.212 45.7742 160.891 46.0918 160.5 46.0918Z" fill="#9EC8FF"/>
<path d="M335.686 36.9277H305.74V19.6406H328.262C331.162 22.5116 332.788 24.122 335.686 26.9946V36.9277Z" fill="#FFB8B3"/>
<path d="M327.711 19.6406V28.8677H335.686V27.0945L328.211 19.6905L327.711 19.6406Z" fill="#F39892"/>
<path d="M328.261 19.6406V27.0945H335.686L328.261 19.6406Z" fill="#FFB8B3"/>
<path d="M322.463 26.1274H309.117C308.828 26.1274 308.588 25.8921 308.588 25.6035C308.588 25.315 308.828 25.0796 309.117 25.0796H322.463C322.754 25.0796 322.992 25.315 322.992 25.6035C322.992 25.8921 322.754 26.1274 322.463 26.1274Z" fill="white"/>
<path d="M322.463 28.8081H309.117C308.828 28.8081 308.588 28.5711 308.588 28.2842C308.588 27.9957 308.828 27.7603 309.117 27.7603H322.463C322.754 27.7603 322.992 27.9957 322.992 28.2842C322.992 28.5711 322.754 28.8081 322.463 28.8081Z" fill="white"/>
<path d="M322.463 31.6292H309.117C308.828 31.6292 308.588 31.3922 308.588 31.1053C308.588 30.8167 308.828 30.5814 309.117 30.5814H322.463C322.754 30.5814 322.992 30.8167 322.992 31.1053C322.992 31.3922 322.754 31.6292 322.463 31.6292Z" fill="white"/>
<path d="M320.713 20.9689C320.713 21.4589 320.313 21.8555 319.818 21.8555C319.325 21.8555 318.923 21.4589 318.923 20.9689C318.923 20.4788 319.325 20.0823 319.818 20.0823C320.313 20.0823 320.713 20.4788 320.713 20.9689Z" fill="#3E6BAB"/>
<path d="M202.568 42.8018L183.881 39.2264L188.235 16.9082L206.922 20.4853L202.568 42.8018Z" fill="#FAE8B6"/>
<path d="M202.967 30.1332L193.06 28.2375C192.796 28.1875 192.622 27.9312 192.673 27.6701C192.723 27.4089 192.982 27.2365 193.246 27.288L203.152 29.1838C203.416 29.2337 203.59 29.4884 203.54 29.7496C203.488 30.0107 203.23 30.1832 202.967 30.1332Z" fill="#9EC8FF"/>
<path d="M202.488 32.5866L192.582 30.6909C192.318 30.6393 192.144 30.3846 192.194 30.1234C192.245 29.8623 192.502 29.6898 192.766 29.7414L202.674 31.6371C202.938 31.6871 203.112 31.9418 203.061 32.2029C203.009 32.4641 202.752 32.6366 202.488 32.5866Z" fill="#9EC8FF"/>
<path d="M201.997 35.1078L192.09 33.2105C191.825 33.1605 191.652 32.9058 191.703 32.6447C191.753 32.3835 192.01 32.2111 192.274 32.2611L202.182 34.1568C202.446 34.2083 202.62 34.463 202.568 34.7242C202.518 34.9853 202.26 35.1578 201.997 35.1078Z" fill="#9EC8FF"/>
<path d="M196.26 19.9017C196.175 20.3386 195.749 20.6239 195.308 20.5401C194.865 20.4563 194.577 20.0323 194.662 19.5955C194.748 19.1586 195.174 18.8733 195.615 18.9571C196.056 19.0425 196.346 19.4649 196.26 19.9017Z" fill="#3E6BAB"/>
<path d="M349.507 61.1157L320.588 58.098L322.497 40.1436L345.427 42.5358C347.52 45.0973 348.693 46.5319 350.786 49.0934L349.507 61.1157Z" fill="#9EC8FF"/>
<path d="M345.017 43.8174L323.49 41.5703L321.88 56.7198L348.641 59.5134L349.585 50.6426L344.349 50.0961L345.017 43.8174Z" fill="white"/>
<path d="M342.099 49.3207L328.154 47.8651C327.835 47.8328 327.601 47.5459 327.635 47.2299C327.667 46.9124 327.957 46.6819 328.276 46.7141L342.221 48.1697C342.541 48.2036 342.774 48.4889 342.741 48.8065C342.707 49.1224 342.419 49.3545 342.099 49.3207Z" fill="#9EC8FF"/>
<path d="M341.775 52.3642L327.83 50.9101C327.511 50.8763 327.277 50.5893 327.311 50.2734C327.345 49.9574 327.633 49.7253 327.952 49.7592L341.898 51.2132C342.217 51.247 342.45 51.5324 342.417 51.8499C342.383 52.1659 342.095 52.398 341.775 52.3642Z" fill="#9EC8FF"/>
<path d="M341.438 55.5432L327.493 54.0875C327.173 54.0537 326.94 53.7684 326.973 53.4508C327.007 53.1348 327.295 52.9027 327.615 52.9366L341.56 54.3922C341.879 54.4244 342.113 54.7114 342.079 55.0273C342.045 55.3433 341.757 55.5754 341.438 55.5432Z" fill="#9EC8FF"/>
<path d="M334.213 44.2897C334.213 44.7781 333.813 45.1763 333.318 45.1763C332.825 45.1763 332.423 44.7781 332.423 44.2897C332.423 43.7996 332.825 43.4031 333.318 43.4031C333.813 43.4031 334.213 43.7996 334.213 44.2897Z" fill="#3E6BAB"/>
<path d="M493.2 30.2847C493.2 35.7462 488.73 40.1743 483.216 40.1743C477.702 40.1743 473.231 35.7462 473.231 30.2847C473.231 24.8232 477.702 20.3951 483.216 20.3951C488.73 20.3951 493.2 24.8232 493.2 30.2847Z" fill="#9CD499"/>
<path d="M482.225 33.6699L482.207 33.6683C482.072 33.6635 481.946 33.6055 481.858 33.5055L479.145 30.4524C478.968 30.2525 478.988 29.9462 479.189 29.7705C479.393 29.5932 479.7 29.6141 479.879 29.814L482.251 32.4835L487.677 27.2236C487.869 27.0366 488.178 27.0398 488.367 27.2316C488.556 27.4218 488.552 27.7281 488.36 27.9151L482.566 33.5313C482.475 33.62 482.352 33.6699 482.225 33.6699Z" fill="white"/>
<path d="M33.3441 122.088H90.9087C92.3842 122.088 93.5915 120.892 93.5915 119.43V99.0591C93.5915 97.5986 92.3842 96.4025 90.9087 96.4025H33.3441C31.8687 96.4025 30.6616 97.5986 30.6616 99.0591V119.43C30.6616 120.892 31.8687 122.088 33.3441 122.088Z" fill="#9EC8FF"/>
<path d="M85.9906 118.213V132.384L69.5037 116.054C69.5037 116.054 85.6553 118.213 85.9906 118.213Z" fill="#9EC8FF"/>
<path d="M36.1908 119.541H88.062C89.3128 119.541 90.3364 118.527 90.3364 117.289V101.201C90.3364 99.9633 89.3128 98.9493 88.062 98.9493H36.1908C34.9399 98.9493 33.9165 99.9633 33.9165 101.201V117.289C33.9165 118.527 34.9399 119.541 36.1908 119.541Z" fill="white"/>
<path d="M59.6115 104.042H85.0965C85.7112 104.042 86.2143 103.544 86.2143 102.934C86.2143 102.325 85.7112 101.827 85.0965 101.827H59.6115C58.9968 101.827 58.4939 102.325 58.4939 102.934C58.4939 103.544 58.9968 104.042 59.6115 104.042Z" fill="#9EC8FF"/>
<path d="M38.3248 108.275H85.5927C85.9345 108.275 86.2141 107.998 86.2141 107.659V107.646C86.2141 107.308 85.9345 107.03 85.5927 107.03H38.3248C37.983 107.03 37.7034 107.308 37.7034 107.646V107.659C37.7034 107.998 37.983 108.275 38.3248 108.275Z" fill="#9EC8FF"/>
<path d="M38.3248 110.685H85.5927C85.9345 110.685 86.2141 110.408 86.2141 110.069V110.056C86.2141 109.718 85.9345 109.44 85.5927 109.44H38.3248C37.983 109.44 37.7034 109.718 37.7034 110.056V110.069C37.7034 110.408 37.983 110.685 38.3248 110.685Z" fill="#9EC8FF"/>
<path d="M459.093 104.142H462.11C462.748 104.142 463.264 103.631 463.264 102.999V100.539C463.264 99.9069 462.748 99.3959 462.11 99.3959H459.093C458.457 99.3959 457.941 99.9069 457.941 100.539V102.999C457.941 103.631 458.457 104.142 459.093 104.142Z" fill="#9EC8FF"/>
<path d="M449.413 104.142H452.43C453.068 104.142 453.584 103.631 453.584 102.999V100.539C453.584 99.9069 453.068 99.3959 452.43 99.3959H449.413C448.776 99.3959 448.26 99.9069 448.26 100.539V102.999C448.26 103.631 448.776 104.142 449.413 104.142Z" fill="#9EC8FF"/>
<path d="M439.732 104.142H442.75C443.388 104.142 443.904 103.631 443.904 102.999V100.539C443.904 99.9069 443.388 99.3959 442.75 99.3959H439.732C439.096 99.3959 438.58 99.9069 438.58 100.539V102.999C438.58 103.631 439.096 104.142 439.732 104.142Z" fill="#9EC8FF"/>
</svg>
