<svg width="378" height="264" viewBox="0 0 378 264" fill="none" xmlns="http://www.w3.org/2000/svg">
<path d="M371.5 125.602C370.072 139.84 362.963 161.43 359.26 174.677C355.569 187.799 350.734 199.976 344.755 211.209C338.878 222.459 334.729 229.783 326.512 238.624C318.295 247.466 314.848 248.963 304.265 254.626C293.784 260.304 277.281 260.997 264.371 263.102C236.932 263.102 236.528 263.102 219.58 263.102L189.5 263C162.149 263 138.315 237.458 146 211.209L197 30.1023C204 12.1022 221.5 -0.897634 243.466 0.102263H284.95C321.132 -1.35843 344.14 13.0651 358.224 28.2509C375.577 46.9607 376.681 74.1582 374.122 99.5479C373.085 109.835 372.09 119.72 371.5 125.602ZM320.459 121.113C322.5 110.102 323.613 93.6109 323.613 93.6109C323.613 93.6109 323.613 52.961 280.5 52.961C260.5 52.961 254.346 55.034 247.5 76.1022L212.003 194.52C209.509 202.839 215.738 211.209 224.423 211.209V211.209C238.546 211.209 244.598 211.209 258.318 211.209C272.037 211.209 281.035 206.364 288.985 198.121C296.948 189.752 299.189 185.831 304.265 173.307C309.354 160.657 317.506 137.051 320.459 121.113Z" fill="#00C1DB"/>
<path d="M270.5 0L191.5 263L142.655 262.891C110.936 262.821 82.7614 242.616 72.5207 212.595L17.6632 51.7798C9.0003 26.3844 27.8773 0 54.7096 0V0C60.1585 0 64.9617 3.57517 66.5255 8.79479L118.785 183.227C121.723 193.141 129.833 199.273 136.333 199.273C135.903 199.273 136.763 199.273 136.333 199.273C142.333 199.273 150.895 193.018 153.833 183.227L195.405 34.3586C201.077 14.0469 219.584 0 240.673 0H270.5Z" fill="#0877A7"/>
</svg>
