<svg width="69" height="45" viewBox="0 0 69 45" fill="none" xmlns="http://www.w3.org/2000/svg">
<path d="M0 8H12L16 1H4L0 8Z" fill="url(#paint0_linear_332_3)"/>
<path d="M34.5 8L47.5849 8L42.5 1H29.3594L34.5 8Z" fill="url(#paint1_linear_332_3)"/>
<path d="M34.6935 8L29.5358 1L22.7929 14.899L19 22.7172L23.03 30.9697L34.6935 8Z" fill="url(#paint2_linear_332_3)"/>
<path d="M47 8H34.3698L22.9316 30.9879L16.6875 44H29.6217L47 8Z" fill="url(#paint3_linear_332_3)"/>
<path d="M29 44H38" stroke="black" stroke-linecap="round"/>
<path d="M43 17C46.5 17 48.8879 17.9262 50.7905 18.941M34.5 34.5C55.1544 34.5 59.2631 23.4603 50.7905 18.941M47.4227 7.90123C54.2121 7.90123 59.4321 10.0142 62.9158 13.2177C73.8312 23.2554 67.5 44 38 44M43 1C55 1 59 5 63.5 13.7817M50.7905 18.941C50.1209 22.3116 46 27.5 38 27.5" stroke="black" stroke-linecap="round"/>
<path d="M23 31.5L18.9412 22.747L12.1765 8H6.08823H0L16.6863 44L23 31.5Z" fill="url(#paint4_linear_332_3)"/>
<path d="M12 8L19 23L23 15L16 1L12 8Z" fill="url(#paint5_linear_332_3)"/>
<defs>
<linearGradient id="paint0_linear_332_3" x1="7" y1="11" x2="11.5" y2="-5.5" gradientUnits="userSpaceOnUse">
<stop stop-color="#505FAC"/>
<stop offset="1" stop-color="#2D3459"/>
</linearGradient>
<linearGradient id="paint1_linear_332_3" x1="40" y1="11" x2="39.9037" y2="-0.999227" gradientUnits="userSpaceOnUse">
<stop stop-color="#505FAC"/>
<stop offset="1" stop-color="#2D3459"/>
</linearGradient>
<linearGradient id="paint2_linear_332_3" x1="26.828" y1="1" x2="26.828" y2="30.9697" gradientUnits="userSpaceOnUse">
<stop stop-color="#B5C1FF"/>
<stop offset="1" stop-color="#505EA8"/>
</linearGradient>
<linearGradient id="paint3_linear_332_3" x1="22" y1="22" x2="30" y2="37" gradientUnits="userSpaceOnUse">
<stop stop-color="#6879D3"/>
<stop offset="1" stop-color="#38406C"/>
</linearGradient>
<linearGradient id="paint4_linear_332_3" x1="20" y1="14.5" x2="8" y2="34.5" gradientUnits="userSpaceOnUse">
<stop stop-color="#6879D3"/>
<stop offset="1" stop-color="#1E2754"/>
</linearGradient>
<linearGradient id="paint5_linear_332_3" x1="19" y1="23" x2="1.5" y2="14.5" gradientUnits="userSpaceOnUse">
<stop stop-color="#3D446D"/>
<stop offset="1" stop-color="#8999EB"/>
</linearGradient>
</defs>
</svg>
