<svg width="152" height="42" viewBox="0 0 152 42" fill="none" xmlns="http://www.w3.org/2000/svg">
<path d="M8.911 20L0.757 1.1H5.482L12.61 17.84H9.829L17.065 1.1H21.412L13.231 20H8.911ZM29.038 8.714H38.137V12.116H29.038V8.714ZM29.362 16.49H39.649V20H25.015V1.1H39.298V4.61H29.362V16.49ZM45.1543 20V1.1H48.7723L59.9233 14.708H58.1683V1.1H62.4883V20H58.8973L47.7193 6.392H49.4743V20H45.1543ZM72.8999 20V4.664H66.8519V1.1H83.3219V4.664H77.2739V20H72.8999ZM95.781 20.324C93.099 20.324 91.002 19.577 89.49 18.083C87.978 16.589 87.222 14.456 87.222 11.684V1.1H91.596V11.522C91.596 13.322 91.965 14.618 92.703 15.41C93.441 16.202 94.476 16.598 95.808 16.598C97.14 16.598 98.175 16.202 98.913 15.41C99.651 14.618 100.02 13.322 100.02 11.522V1.1H104.34V11.684C104.34 14.456 103.584 16.589 102.072 18.083C100.56 19.577 98.463 20.324 95.781 20.324ZM110.687 20V1.1H118.868C120.56 1.1 122.018 1.379 123.242 1.937C124.466 2.477 125.411 3.26 126.077 4.286C126.743 5.312 127.076 6.536 127.076 7.958C127.076 9.362 126.743 10.577 126.077 11.603C125.411 12.611 124.466 13.385 123.242 13.925C122.018 14.465 120.56 14.735 118.868 14.735H113.117L115.061 12.818V20H110.687ZM122.702 20L117.977 13.142H122.648L127.427 20H122.702ZM115.061 13.304L113.117 11.252H118.625C119.975 11.252 120.983 10.964 121.649 10.388C122.315 9.794 122.648 8.984 122.648 7.958C122.648 6.914 122.315 6.104 121.649 5.528C120.983 4.952 119.975 4.664 118.625 4.664H113.117L115.061 2.585V13.304ZM136.59 8.714H145.689V12.116H136.59V8.714ZM136.914 16.49H147.201V20H132.567V1.1H146.85V4.61H136.914V16.49Z" fill="#595959"/>
<path d="M2.328 40V28.8H7.416C8.632 28.8 9.704 29.0347 10.632 29.504C11.56 29.9627 12.2853 30.608 12.808 31.44C13.3307 32.272 13.592 33.2587 13.592 34.4C13.592 35.5307 13.3307 36.5173 12.808 37.36C12.2853 38.192 11.56 38.8427 10.632 39.312C9.704 39.7707 8.632 40 7.416 40H2.328ZM4.92 37.872H7.288C8.03467 37.872 8.68 37.7333 9.224 37.456C9.77867 37.168 10.2053 36.7627 10.504 36.24C10.8133 35.7173 10.968 35.104 10.968 34.4C10.968 33.6853 10.8133 33.072 10.504 32.56C10.2053 32.0373 9.77867 31.6373 9.224 31.36C8.68 31.072 8.03467 30.928 7.288 30.928H4.92V37.872ZM21.7067 40V28.8H24.2987V40H21.7067ZM36.7968 40.192C35.9008 40.192 35.0421 40.0747 34.2207 39.84C33.3994 39.5947 32.7381 39.28 32.2367 38.896L33.1167 36.944C33.5967 37.2853 34.1621 37.568 34.8127 37.792C35.4741 38.0053 36.1407 38.112 36.8127 38.112C37.3247 38.112 37.7354 38.064 38.0448 37.968C38.3648 37.8613 38.5994 37.7173 38.7488 37.536C38.8981 37.3547 38.9728 37.1467 38.9728 36.912C38.9728 36.6133 38.8554 36.3787 38.6207 36.208C38.3861 36.0267 38.0768 35.8827 37.6927 35.776C37.3087 35.6587 36.8821 35.552 36.4127 35.456C35.9541 35.3493 35.4901 35.2213 35.0207 35.072C34.5621 34.9227 34.1407 34.7307 33.7567 34.496C33.3727 34.2613 33.0581 33.952 32.8127 33.568C32.5781 33.184 32.4607 32.6933 32.4607 32.096C32.4607 31.456 32.6314 30.8747 32.9727 30.352C33.3247 29.8187 33.8474 29.3973 34.5407 29.088C35.2447 28.768 36.1247 28.608 37.1807 28.608C37.8848 28.608 38.5781 28.6933 39.2607 28.864C39.9434 29.024 40.5461 29.2693 41.0688 29.6L40.2688 31.568C39.7461 31.2693 39.2234 31.0507 38.7007 30.912C38.1781 30.7627 37.6661 30.688 37.1648 30.688C36.6634 30.688 36.2527 30.7467 35.9327 30.864C35.6127 30.9813 35.3834 31.136 35.2447 31.328C35.1061 31.5093 35.0367 31.7227 35.0367 31.968C35.0367 32.256 35.1541 32.4907 35.3887 32.672C35.6234 32.8427 35.9327 32.9813 36.3168 33.088C36.7007 33.1947 37.1221 33.3013 37.5807 33.408C38.0501 33.5147 38.5141 33.6373 38.9728 33.776C39.4421 33.9147 39.8688 34.1013 40.2528 34.336C40.6367 34.5707 40.9461 34.88 41.1807 35.264C41.4261 35.648 41.5487 36.1333 41.5487 36.72C41.5487 37.3493 41.3727 37.9253 41.0208 38.448C40.6688 38.9707 40.1408 39.392 39.4367 39.712C38.7434 40.032 37.8634 40.192 36.7968 40.192ZM54.8399 40.192C53.9759 40.192 53.1705 40.0533 52.4239 39.776C51.6879 39.488 51.0479 39.0827 50.5039 38.56C49.9599 38.0373 49.5332 37.424 49.2239 36.72C48.9252 36.016 48.7759 35.2427 48.7759 34.4C48.7759 33.5573 48.9252 32.784 49.2239 32.08C49.5332 31.376 49.9599 30.7627 50.5039 30.24C51.0585 29.7173 51.7039 29.3173 52.4399 29.04C53.1759 28.752 53.9812 28.608 54.8559 28.608C55.8265 28.608 56.7012 28.7787 57.4799 29.12C58.2692 29.4507 58.9305 29.9413 59.4639 30.592L57.7999 32.128C57.4159 31.6907 56.9892 31.3653 56.5199 31.152C56.0505 30.928 55.5385 30.816 54.9839 30.816C54.4612 30.816 53.9812 30.9013 53.5439 31.072C53.1065 31.2427 52.7279 31.488 52.4079 31.808C52.0879 32.128 51.8372 32.5067 51.6559 32.944C51.4852 33.3813 51.3999 33.8667 51.3999 34.4C51.3999 34.9333 51.4852 35.4187 51.6559 35.856C51.8372 36.2933 52.0879 36.672 52.4079 36.992C52.7279 37.312 53.1065 37.5573 53.5439 37.728C53.9812 37.8987 54.4612 37.984 54.9839 37.984C55.5385 37.984 56.0505 37.8773 56.5199 37.664C56.9892 37.44 57.4159 37.104 57.7999 36.656L59.4639 38.192C58.9305 38.8427 58.2692 39.3387 57.4799 39.68C56.7012 40.0213 55.8212 40.192 54.8399 40.192ZM72.5799 40.192C71.6945 40.192 70.8732 40.048 70.1159 39.76C69.3692 39.472 68.7185 39.0667 68.1639 38.544C67.6199 38.0213 67.1932 37.408 66.8839 36.704C66.5852 36 66.4359 35.232 66.4359 34.4C66.4359 33.568 66.5852 32.8 66.8839 32.096C67.1932 31.392 67.6252 30.7787 68.1799 30.256C68.7345 29.7333 69.3852 29.328 70.1319 29.04C70.8785 28.752 71.6892 28.608 72.5639 28.608C73.4492 28.608 74.2599 28.752 74.9959 29.04C75.7425 29.328 76.3879 29.7333 76.9319 30.256C77.4865 30.7787 77.9185 31.392 78.2279 32.096C78.5372 32.7893 78.6919 33.5573 78.6919 34.4C78.6919 35.232 78.5372 36.0053 78.2279 36.72C77.9185 37.424 77.4865 38.0373 76.9319 38.56C76.3879 39.072 75.7425 39.472 74.9959 39.76C74.2599 40.048 73.4545 40.192 72.5799 40.192ZM72.5639 37.984C73.0652 37.984 73.5239 37.8987 73.9399 37.728C74.3665 37.5573 74.7399 37.312 75.0599 36.992C75.3799 36.672 75.6252 36.2933 75.7959 35.856C75.9772 35.4187 76.0679 34.9333 76.0679 34.4C76.0679 33.8667 75.9772 33.3813 75.7959 32.944C75.6252 32.5067 75.3799 32.128 75.0599 31.808C74.7505 31.488 74.3825 31.2427 73.9559 31.072C73.5292 30.9013 73.0652 30.816 72.5639 30.816C72.0625 30.816 71.5985 30.9013 71.1719 31.072C70.7559 31.2427 70.3879 31.488 70.0679 31.808C69.7479 32.128 69.4972 32.5067 69.3159 32.944C69.1452 33.3813 69.0599 33.8667 69.0599 34.4C69.0599 34.9227 69.1452 35.408 69.3159 35.856C69.4972 36.2933 69.7425 36.672 70.0519 36.992C70.3719 37.312 70.7452 37.5573 71.1719 37.728C71.5985 37.8987 72.0625 37.984 72.5639 37.984ZM89.8005 40L84.9685 28.8H87.7685L91.9925 38.72H90.3445L94.6325 28.8H97.2085L92.3605 40H89.8005ZM106.688 33.312H112.08V35.328H106.688V33.312ZM106.88 37.92H112.976V40H104.304V28.8H112.768V30.88H106.88V37.92ZM121.198 40V28.8H126.046C127.049 28.8 127.913 28.9653 128.638 29.296C129.363 29.616 129.923 30.08 130.318 30.688C130.713 31.296 130.91 32.0213 130.91 32.864C130.91 33.696 130.713 34.416 130.318 35.024C129.923 35.6213 129.363 36.08 128.638 36.4C127.913 36.72 127.049 36.88 126.046 36.88H122.638L123.79 35.744V40H121.198ZM128.318 40L125.518 35.936H128.286L131.118 40H128.318ZM123.79 36.032L122.638 34.816H125.902C126.702 34.816 127.299 34.6453 127.694 34.304C128.089 33.952 128.286 33.472 128.286 32.864C128.286 32.2453 128.089 31.7653 127.694 31.424C127.299 31.0827 126.702 30.912 125.902 30.912H122.638L123.79 29.68V36.032ZM141.751 40V35.424L142.343 36.992L137.415 28.8H140.167L143.943 35.088H142.359L146.151 28.8H148.695L143.767 36.992L144.343 35.424V40H141.751Z" fill="#595959"/>
</svg>
